HIERARCHY
ROOT Hips
{
	OFFSET	0.00	0.00	0.00
	CHANNELS 6 Xposition Yposition Zposition Zrotation Xrotation Yrotation
	JOINT LeftUpperLeg
	{
		OFFSET	-0.060319	 0.002079	 0.072983
		CHANNELS 3 Zrotation Xrotation Yrotation
		JOINT LeftLowerLeg
		{
			OFFSET	 0.351798	-0.008011	 0.005146
			CHANNELS 3 Zrotation Xrotation Yrotation
			JOINT LeftFoot
			{
				OFFSET	 0.378666	 0.003828	-0.003777
				CHANNELS 3 Zrotation Xrotation Yrotation
				JOINT LeftToes
				{
					OFFSET	 0.084296	 0.047710	-0.003922
					CHANNELS 3 Zrotation Xrotation Yrotation
					End Site
					{
						OFFSET	 0.084296	 0.047710	-0.003922
					}
				}
			}
		}
	}
	JOINT RightUpperLeg
	{
		OFFSET	-0.060836	 0.002079	-0.072553
		CHANNELS 3 Zrotation Xrotation Yrotation
		JOINT RightLowerLeg
		{
			OFFSET	 0.351364	-0.008011	-0.018234
			CHANNELS 3 Zrotation Xrotation Yrotation
			JOINT RightFoot
			{
				OFFSET	 0.378545	 0.003824	-0.010315
				CHANNELS 3 Zrotation Xrotation Yrotation
				JOINT RightToes
				{
					OFFSET	 0.084392	 0.047660	 0.002026
					CHANNELS 3 Zrotation Xrotation Yrotation
					End Site
					{
						OFFSET	 0.084392	 0.047660	 0.002026
					}
				}
			}
		}
	}
	JOINT Character1_Spine
	{
		OFFSET	 0.022713	 0.008182	-0.000081
		CHANNELS 3 Zrotation Xrotation Yrotation
		JOINT Spine
		{
			OFFSET	 0.091343	 0.001755	-0.000000
			CHANNELS 3 Zrotation Xrotation Yrotation
			JOINT Chest
			{
				OFFSET	 0.087667	-0.000304	-0.000000
				CHANNELS 3 Zrotation Xrotation Yrotation
				JOINT LeftShoulder
				{
					OFFSET	 0.122367	-0.001395	 0.042227
					CHANNELS 3 Zrotation Xrotation Yrotation
					JOINT LeftUpperArm
					{
						OFFSET	 0.055437	-0.000000	 0.000001
						CHANNELS 3 Zrotation Xrotation Yrotation
						JOINT LeftLowerArm
						{
							OFFSET	 0.233777	 0.000017	 0.000012
							CHANNELS 3 Zrotation Xrotation Yrotation
							JOINT LeftHand
							{
								OFFSET	 0.162482	-0.000001	 0.000000
								CHANNELS 3 Zrotation Xrotation Yrotation
								JOINT LeftIndexProximal
								{
									OFFSET	 0.080750	 0.025713	-0.001428
									CHANNELS 3 Zrotation Xrotation Yrotation
									JOINT LeftIndexIntermediate
									{
										OFFSET	 0.024260	 0.002507	-0.001187
										CHANNELS 3 Zrotation Xrotation Yrotation
										JOINT LeftIndexDistal
										{
											OFFSET	 0.016097	 0.000118	-0.000458
											CHANNELS 3 Zrotation Xrotation Yrotation
											End Site
											{
												OFFSET	 0.016097	 0.000118	-0.000458
											}
										}
									}
								}
								JOINT LeftMiddleProximal
								{
									OFFSET	 0.080696	 0.005822	-0.006021
									CHANNELS 3 Zrotation Xrotation Yrotation
									JOINT LeftMiddleIntermediate
									{
										OFFSET	 0.025063	 0.001482	 0.003794
										CHANNELS 3 Zrotation Xrotation Yrotation
										JOINT LeftMiddleDistal
										{
											OFFSET	 0.019431	-0.000068	 0.000162
											CHANNELS 3 Zrotation Xrotation Yrotation
											End Site
											{
												OFFSET	 0.019431	-0.000068	 0.000162
											}
										}
									}
								}
								JOINT LeftLittleProximal
								{
									OFFSET	 0.065753	-0.027836	-0.002284
									CHANNELS 3 Zrotation Xrotation Yrotation
									JOINT LeftLittleIntermediate
									{
										OFFSET	 0.018097	 0.000133	-0.000014
										CHANNELS 3 Zrotation Xrotation Yrotation
										JOINT LeftLittleDistal
										{
											OFFSET	 0.013911	 0.000003	 0.000248
											CHANNELS 3 Zrotation Xrotation Yrotation
											End Site
											{
												OFFSET	 0.013911	 0.000003	 0.000248
											}
										}
									}
								}
								JOINT LeftRingProximal
								{
									OFFSET	 0.076793	-0.012626	-0.006246
									CHANNELS 3 Zrotation Xrotation Yrotation
									JOINT LeftRingIntermediate
									{
										OFFSET	 0.023683	-0.000754	 0.001098
										CHANNELS 3 Zrotation Xrotation Yrotation
										JOINT LeftRingDistal
										{
											OFFSET	 0.015908	 0.000167	-0.000861
											CHANNELS 3 Zrotation Xrotation Yrotation
											End Site
											{
												OFFSET	 0.015908	 0.000167	-0.000861
											}
										}
									}
								}
								JOINT LeftThumbProximal
								{
									OFFSET	 0.024761	 0.018266	 0.014236
									CHANNELS 3 Zrotation Xrotation Yrotation
									JOINT LeftThumbIntermediate
									{
										OFFSET	 0.032146	 0.001986	 0.001523
										CHANNELS 3 Zrotation Xrotation Yrotation
										JOINT LeftThumbDistal
										{
											OFFSET	 0.017566	-0.001003	 0.000085
											CHANNELS 3 Zrotation Xrotation Yrotation
											End Site
											{
												OFFSET	 0.017566	-0.001003	 0.000085
											}
										}
									}
								}
							}
						}
					}
				}
				JOINT Neck
				{
					OFFSET	 0.156851	 0.008298	 0.000287
					CHANNELS 3 Zrotation Xrotation Yrotation
					JOINT Head
					{
						OFFSET	 0.078083	-0.005535	-0.000000
						CHANNELS 3 Zrotation Xrotation Yrotation
						End Site
						{
							OFFSET	 0.078083	-0.005535	-0.000000
						}
					}
				}
				JOINT RightShoulder
				{
					OFFSET	 0.122455	-0.000150	-0.041994
					CHANNELS 3 Zrotation Xrotation Yrotation
					JOINT RightUpperArm
					{
						OFFSET	 0.055437	 0.000000	-0.000001
						CHANNELS 3 Zrotation Xrotation Yrotation
						JOINT RightLowerArm
						{
							OFFSET	 0.233779	 0.000017	-0.000013
							CHANNELS 3 Zrotation Xrotation Yrotation
							JOINT RightHand
							{
								OFFSET	 0.162480	-0.000001	 0.000002
								CHANNELS 3 Zrotation Xrotation Yrotation
								JOINT RightIndexProximal
								{
									OFFSET	 0.077459	 0.024774	 0.023877
									CHANNELS 3 Zrotation Xrotation Yrotation
									JOINT RightIndexIntermediate
									{
										OFFSET	 0.024233	-0.002230	-0.002009
										CHANNELS 3 Zrotation Xrotation Yrotation
										JOINT RightIndexDistal
										{
											OFFSET	 0.015886	 0.000001	-0.002642
											CHANNELS 3 Zrotation Xrotation Yrotation
											End Site
											{
												OFFSET	 0.015886	 0.000001	-0.002642
											}
										}
									}
								}
								JOINT RightMiddleProximal
								{
									OFFSET	 0.077341	 0.004360	 0.024111
									CHANNELS 3 Zrotation Xrotation Yrotation
									JOINT RightMiddleIntermediate
									{
										OFFSET	 0.025355	-0.000680	 0.001169
										CHANNELS 3 Zrotation Xrotation Yrotation
										JOINT RightMiddleDistal
										{
											OFFSET	 0.019416	-0.000417	-0.000705
											CHANNELS 3 Zrotation Xrotation Yrotation
											End Site
											{
												OFFSET	 0.019416	-0.000417	-0.000705
											}
										}
									}
								}
								JOINT RightLittleProximal
								{
									OFFSET	 0.065019	-0.027722	 0.010366
									CHANNELS 3 Zrotation Xrotation Yrotation
									JOINT RightLittleIntermediate
									{
										OFFSET	 0.018098	-0.000144	-0.000053
										CHANNELS 3 Zrotation Xrotation Yrotation
										JOINT RightLittleDistal
										{
											OFFSET	 0.013886	 0.000267	 0.000828
											CHANNELS 3 Zrotation Xrotation Yrotation
											End Site
											{
												OFFSET	 0.013886	 0.000267	 0.000828
											}
										}
									}
								}
								JOINT RightRingProximal
								{
									OFFSET	 0.074304	-0.013711	 0.019656
									CHANNELS 3 Zrotation Xrotation Yrotation
									JOINT RightRingIntermediate
									{
										OFFSET	 0.023458	-0.000008	-0.003508
										CHANNELS 3 Zrotation Xrotation Yrotation
										JOINT RightRingDistal
										{
											OFFSET	 0.015894	-0.001033	 0.000378
											CHANNELS 3 Zrotation Xrotation Yrotation
											End Site
											{
												OFFSET	 0.015894	-0.001033	 0.000378
											}
										}
									}
								}
								JOINT RightThumbProximal
								{
									OFFSET	 0.026339	 0.020861	-0.004527
									CHANNELS 3 Zrotation Xrotation Yrotation
									JOINT RightThumbIntermediate
									{
										OFFSET	 0.032030	 0.001128	 0.000602
										CHANNELS 3 Zrotation Xrotation Yrotation
										JOINT RightThumbDistal
										{
											OFFSET	 0.017586	 0.000511	 0.000152
											CHANNELS 3 Zrotation Xrotation Yrotation
											End Site
											{
												OFFSET	 0.017586	 0.000511	 0.000152
											}
										}
									}
								}
							}
						}
					}
				}
			}
		}
	}
}
MOTION
Frames:    4
Frame Time: 0.1428571
 0.072159	 0.970335	-0.903187	 80.385110	-48.444770	-7.428298	 1.999969	-0.300450	 174.177200	-7.680348	 2.303841	-11.409580	 46.830730	-17.484370	 12.574580	 62.519460	-3.188659	 0.006148	-1.321505	-0.174747	 177.186900	-6.610374	-0.031377	-1.289438	 23.845750	-22.278940	 13.006540	 62.519680	-0.000152	 0.006819	 4.902136	 0.017393	 0.202796	 14.771660	 0.294438	 0.742151	-17.352180	-0.847073	 0.059906	 18.089590	 0.786613	-90.318680	 2.610076	-22.475140	-63.389390	 99.246050	 0.094035	-11.354270	 26.840720	-7.925598	-22.249070	 0.400901	 11.965310	-4.748454	 0.477874	 0.266074	 1.215439	-0.546671	 0.281770	 7.091043	-6.028159	 6.440647	 2.122423	 1.345341	-3.951414	-7.945199	-1.888770	-2.723091	 6.121307	-24.889980	-9.392361	-17.565870	-2.647219	 2.127349	 1.980443	 0.159782	-1.149520	 1.319157	-14.969960	-7.591256	-10.839200	-0.178069	 2.674636	-6.625014	 0.386537	-3.212840	 3.918352	 164.427200	 55.870460	-127.805100	 6.634563	-0.414953	-3.399435	-4.256975	 0.117892	-1.694328	 13.141350	 1.403784	 1.685104	-5.612720	-30.199220	 3.340129	 18.089590	 0.786612	 89.678790	 13.105670	 63.736930	 74.035290	 85.417790	-11.506630	 59.270570	 22.192010	 17.367260	 38.148530	-177.389600	-8.831868	-175.013600	-0.016568	-3.219298	-3.883214	 0.855641	-4.408458	 1.686657	 177.319100	-9.036760	-172.642800	 1.241053	-1.979778	-4.426968	-0.113596	 0.528879	-4.788302	 158.169100	-26.491550	 168.876600	 1.386256	 2.855342	 4.611974	 0.094532	 2.019469	-1.637273	 166.453600	-25.945450	 166.554900	 2.005292	-2.321953	 9.005940	-2.970803	-0.971437	-2.537858	 7.912983	 55.262230	 25.182600	 0.027068	 3.778531	-1.271253	 1.596345	-1.114234	-1.334432
 0.070912	 0.941434	-0.931038	 84.967480	-37.264050	-3.255648	-2.508637	 0.223822	 174.511700	-10.584770	 2.612516	-14.464530	 44.296370	 4.736714	-9.314101	 62.519460	-3.188659	 0.006148	-3.212466	-0.108120	 173.873000	-10.912550	-0.568323	 1.201951	 54.680920	 31.731370	-31.722390	 62.519680	-0.000152	 0.006819	 4.902136	 0.017393	 0.202796	 12.198910	 0.973339	 2.813751	-17.352180	-0.847073	 0.059906	 18.089590	 0.786613	-90.318680	-1.789524	-13.712550	-61.964100	 110.602400	-7.344119	-23.605570	 18.021410	-15.335600	-17.912280	 0.400901	 11.965310	-4.748454	 0.477874	 0.266074	 1.215439	-0.546671	 0.281770	 7.091043	-6.028159	 6.440647	 2.122423	 1.345341	-3.951414	-7.945199	-1.888770	-2.723091	 6.121307	-24.889980	-9.392361	-17.565870	-2.647219	 2.127349	 1.980443	 0.159782	-1.149520	 1.319157	-14.969960	-7.591256	-10.839200	-0.178069	 2.674636	-6.625014	 0.386537	-3.212840	 3.918352	 164.427200	 55.870460	-127.805100	 6.634563	-0.414953	-3.399435	-4.256975	 0.117892	-1.694328	 15.295110	 1.993990	 3.348589	-4.593406	-46.375580	 2.023415	 18.089590	 0.786612	 89.678790	 20.643760	 53.537930	 58.766850	 90.571420	-2.457927	 53.195770	 15.301150	 25.028260	 31.277710	-177.389600	-8.831868	-175.013600	-0.016568	-3.219298	-3.883214	 0.855641	-4.408458	 1.686657	 177.319100	-9.036760	-172.642800	 1.241053	-1.979778	-4.426968	-0.113596	 0.528879	-4.788302	 158.169100	-26.491550	 168.876600	 1.386256	 2.855342	 4.611974	 0.094532	 2.019469	-1.637273	 166.453600	-25.945450	 166.554900	 2.005292	-2.321953	 9.005940	-2.970803	-0.971437	-2.537858	 7.912983	 55.262230	 25.182600	 0.027068	 3.778531	-1.271253	 1.596345	-1.114234	-1.334432
 0.069407	 0.929522	-0.938251	 85.786990	-34.685520	-2.603978	-2.460234	 0.225997	 173.683000	-9.336851	 1.959786	-12.345190	 8.796719	 1.496908	-3.668601	 62.519460	-3.188659	 0.006148	-5.042172	-0.074297	 175.121700	-13.370610	-0.397590	-0.439162	 25.737000	 32.430230	-10.516730	 62.519680	-0.000152	 0.006819	 4.902136	 0.017393	 0.202796	 11.217280	 1.110701	 3.397048	-17.352180	-0.847073	 0.059906	 18.089590	 0.786613	-90.318680	-2.572704	-10.664950	-63.444890	 109.080100	-7.947873	-26.927370	 17.033090	-9.624575	-9.082943	 0.400901	 11.965310	-4.748454	 0.477874	 0.266074	 1.215439	-0.546671	 0.281770	 7.091043	-6.028159	 6.440647	 2.122423	 1.345341	-3.951414	-7.945199	-1.888770	-2.723091	 6.121307	-24.889980	-9.392361	-17.565870	-2.647219	 2.127349	 1.980443	 0.159782	-1.149520	 1.319157	-14.969960	-7.591256	-10.839200	-0.178069	 2.674636	-6.625014	 0.386537	-3.212840	 3.918352	 164.427200	 55.870460	-127.805100	 6.634563	-0.414953	-3.399435	-4.256975	 0.117892	-1.694328	 18.688770	 2.651918	 4.679045	-5.412844	-50.974860	-0.828337	 18.089590	 0.786612	 89.678790	 21.263760	 48.754590	 54.854870	 90.831100	-2.082369	 52.338450	 18.017630	 21.163990	 28.305170	-177.389600	-8.831868	-175.013600	-0.016568	-3.219298	-3.883214	 0.855641	-4.408458	 1.686657	 177.319100	-9.036760	-172.642800	 1.241053	-1.979778	-4.426968	-0.113596	 0.528879	-4.788302	 158.169100	-26.491550	 168.876600	 1.386256	 2.855342	 4.611974	 0.094532	 2.019469	-1.637273	 166.453600	-25.945450	 166.554900	 2.005292	-2.321953	 9.005940	-2.970803	-0.971437	-2.537858	 7.912983	 55.262230	 25.182600	 0.027068	 3.778531	-1.271253	 1.596345	-1.114234	-1.334432
 0.069972	 0.931317	-0.950719	 85.057290	-33.302820	-2.922116	-2.171134	 0.186934	 174.371600	-11.758260	 2.678549	-12.987140	 17.121880	 27.051930	-11.436610	 62.519460	-3.188659	 0.006148	-2.046452	-0.173186	 174.535200	-13.126590	 0.096538	-2.137931	 45.678380	 31.084120	-23.282350	 62.519680	-0.000152	 0.006819	 4.902136	 0.017393	 0.202796	 11.981340	 0.904537	 2.647626	-17.352180	-0.847073	 0.059906	 18.089590	 0.786613	-90.318680	-2.817199	-6.818771	-67.234620	 104.183700	-5.720144	-28.609260	 29.416290	-5.897298	-21.090610	 0.400901	 11.965310	-4.748454	 0.477874	 0.266074	 1.215439	-0.546671	 0.281770	 7.091043	-6.028159	 6.440647	 2.122423	 1.345341	-3.951414	-7.945199	-1.888770	-2.723091	 6.121307	-24.889980	-9.392361	-17.565870	-2.647219	 2.127349	 1.980443	 0.159782	-1.149520	 1.319157	-14.969960	-7.591256	-10.839200	-0.178069	 2.674636	-6.625014	 0.386537	-3.212840	 3.918352	 164.427200	 55.870460	-127.805100	 6.634563	-0.414953	-3.399435	-4.256975	 0.117892	-1.694328	 19.801800	 2.253747	 3.732653	-6.179720	-49.615570	-1.137135	 18.089590	 0.786612	 89.678790	 16.641060	 41.973250	 57.870490	 88.798070	-4.870521	 53.535730	 21.665490	 12.740110	 23.901080	-177.389600	-8.831868	-175.013600	-0.016568	-3.219298	-3.883214	 0.855641	-4.408458	 1.686657	 177.319100	-9.036760	-172.642800	 1.241053	-1.979778	-4.426968	-0.113596	 0.528879	-4.788302	 158.169100	-26.491550	 168.876600	 1.386256	 2.855342	 4.611974	 0.094532	 2.019469	-1.637273	 166.453600	-25.945450	 166.554900	 2.005292	-2.321953	 9.005940	-2.970803	-0.971437	-2.537858	 7.912983	 55.262230	 25.182600	 0.027068	 3.778531	-1.271253	 1.596345	-1.114234	-1.334432
